grf
version=1
nRows=12
nColumns=37
inDegrees=no
endheader
time	ground_force_1_vx	ground_force_1_vy	ground_force_1_vz	ground_force_1_px	ground_force_1_py	ground_force_1_pz	ground_moment_1_mx	ground_moment_1_my	ground_moment_1_mz	ground_force_2_vx	ground_force_2_vy	ground_force_2_vz	ground_force_2_px	ground_force_2_py	ground_force_2_pz	ground_moment_2_mx	ground_moment_2_my	ground_moment_2_mz	ground_force_3_vx	ground_force_3_vy	ground_force_3_vz	ground_force_3_px	ground_force_3_py	ground_force_3_pz	ground_moment_3_mx	ground_moment_3_my	ground_moment_3_mz	ground_force_4_vx	ground_force_4_vy	ground_force_4_vz	ground_force_4_px	ground_force_4_py	ground_force_4_pz	ground_moment_4_mx	ground_moment_4_my	ground_moment_4_mz
      2.32000000	      0.00000000	     -0.00000000	      0.00000000	      0.00000000	      0.00000000	      0.00000000	      0.00000000	      0.00000000	      0.00000000	      0.44376579	     44.04640961	   -399.11141968	   -320.93985671	  -1088.45876976	      0.00000000	      0.00000000	      0.00000000	   5049.12431399	      0.36639089	    -40.54425815	   -368.37316895	   -329.54547962	   -699.99820732	      0.00000000	      0.00000000	     -0.00000000	  -5690.58450833	      0.00000000	     -0.00000000	      0.00000000	      0.00000000	      0.00000000	      0.00000000	      0.00000000	      0.00000000	      0.00000000
      2.33000000	      0.00000000	     -0.00000000	      0.00000000	      0.00000000	      0.00000000	      0.00000000	      0.00000000	      0.00000000	      0.00000000	      0.28753382	     43.68052673	   -399.06704712	   -321.84697601	  -1089.02876812	      0.00000000	      0.00000000	      0.00000000	   4984.13766662	      0.89828073	    -40.36079033	   -369.41119385	   -330.30289283	   -700.49840022	      0.00000000	      0.00000000	     -0.00000000	  -5879.11590556	      0.00000000	     -0.00000000	      0.00000000	      0.00000000	      0.00000000	      0.00000000	      0.00000000	      0.00000000	      0.00000000
      2.34000000	      0.00000000	     -0.00000000	      0.00000000	      0.00000000	      0.00000000	      0.00000000	      0.00000000	      0.00000000	      0.00000000	      0.45894548	     43.67604446	   -398.73165894	   -321.42326939	  -1088.61132448	      0.00000000	      0.00000000	      0.00000000	   5098.28716017	      1.24412057	    -39.91707622	   -368.34643555	   -331.29505023	   -701.33783986	      0.00000000	      0.00000000	     -0.00000000	  -5727.75450811	      0.00000000	     -0.00000000	      0.00000000	      0.00000000	      0.00000000	      0.00000000	      0.00000000	      0.00000000	      0.00000000
      2.35000000	      0.00000000	     -0.00000000	      0.00000000	      0.00000000	      0.00000000	      0.00000000	      0.00000000	      0.00000000	      0.00000000	      0.00000000	     43.77546310	   -400.51425171	   -322.11224080	  -1088.40539228	      0.00000000	      0.00000000	      0.00000000	   5241.54194072	      1.86502134	    -39.65435044	   -368.03881836	   -332.31986829	   -702.58440553	      0.00000000	     -0.00000000	     -0.00000000	  -6148.91597465	      0.00000000	     -0.00000000	      0.00000000	      0.00000000	      0.00000000	      0.00000000	      0.00000000	      0.00000000	      0.00000000
      2.36000000	      0.00000000	     -0.00000000	      0.00000000	      0.00000000	      0.00000000	      0.00000000	      0.00000000	      0.00000000	      0.00000000	     -0.08921051	     43.77506638	   -402.63305664	   -322.42355103	  -1088.30972329	      0.00000000	      0.00000000	      0.00000000	   5351.41160720	      2.22386423	    -39.13460560	   -369.76757812	   -332.45088327	   -702.05169771	      0.00000000	      0.00000000	     -0.00000000	  -6082.15705504	      0.00000000	     -0.00000000	      0.00000000	      0.00000000	      0.00000000	      0.00000000	      0.00000000	      0.00000000	      0.00000000
      2.37000000	      0.00000000	     -0.00000000	      0.00000000	      0.00000000	      0.00000000	      0.00000000	      0.00000000	      0.00000000	      0.00000000	     -0.52361232	     44.03236008	   -401.94952393	   -323.28486118	  -1087.11460380	      0.00000000	      0.00000000	      0.00000000	   5454.20505591	      2.57457653	    -39.21482872	   -370.11618042	   -332.98939938	   -701.81906753	      0.00000000	     -0.00000000	     -0.00000000	  -6075.40589122	      0.00000000	     -0.00000000	      0.00000000	      0.00000000	      0.00000000	      0.00000000	      0.00000000	      0.00000000	      0.00000000
      2.38000000	      0.00000000	     -0.00000000	      0.00000000	      0.00000000	      0.00000000	      0.00000000	      0.00000000	      0.00000000	      0.00000000	     -1.15413749	     43.76489639	   -403.68469238	   -322.70761797	  -1086.33938860	      0.00000000	      0.00000000	      0.00000000	   5257.26075861	      2.67078127	    -39.38016915	   -369.41729736	   -333.36653756	   -702.68417543	      0.00000000	      0.00000000	     -0.00000000	  -6117.08526683	      0.00000000	     -0.00000000	      0.00000000	      0.00000000	      0.00000000	      0.00000000	      0.00000000	      0.00000000	      0.00000000
      2.39000000	      0.00000000	     -0.00000000	      0.00000000	      0.00000000	      0.00000000	      0.00000000	      0.00000000	      0.00000000	      0.00000000	     -0.97951502	     43.92869949	   -403.35998535	   -323.98446158	  -1086.43636779	      0.00000000	      0.00000000	      0.00000000	   5304.96557263	      3.10487408	    -38.77322415	   -368.35498047	   -334.63872546	   -703.82047998	      0.00000000	      0.00000000	     -0.00000000	  -6261.46675107	      0.00000000	     -0.00000000	      0.00000000	      0.00000000	      0.00000000	      0.00000000	      0.00000000	      0.00000000	      0.00000000
      2.40000000	      0.00000000	     -0.00000000	      0.00000000	      0.00000000	      0.00000000	      0.00000000	      0.00000000	      0.00000000	      0.00000000	     -0.44779065	     43.39782715	   -403.65716553	   -323.91211577	  -1088.02087981	      0.00000000	     -0.00000000	      0.00000000	   5374.82583777	      3.36394782	    -38.76268416	   -370.42904663	   -334.11614923	   -701.36204741	      0.00000000	      0.00000000	     -0.00000000	  -6238.24891009	      0.00000000	     -0.00000000	      0.00000000	      0.00000000	      0.00000000	      0.00000000	      0.00000000	      0.00000000	      0.00000000
      2.41000000	      0.00000000	     -0.00000000	      0.00000000	      0.00000000	      0.00000000	      0.00000000	      0.00000000	      0.00000000	      0.00000000	     -0.61616009	     42.78591537	   -402.26538086	   -324.74232906	  -1086.54619802	      0.00000000	      0.00000000	      0.00000000	   5405.11384100	      3.36086843	    -38.42161971	   -368.70410156	   -333.96747032	   -702.13254531	      0.00000000	      0.00000000	     -0.00000000	  -6252.91094584	      0.00000000	     -0.00000000	      0.00000000	      0.00000000	      0.00000000	      0.00000000	      0.00000000	      0.00000000	      0.00000000
      2.42000000	      0.00000000	     -0.00000000	      0.00000000	      0.00000000	      0.00000000	      0.00000000	      0.00000000	      0.00000000	      0.00000000	     -0.97013754	     42.51839447	   -402.59982300	   -325.64191070	  -1086.12811256	      0.00000000	      0.00000000	      0.00000000	   5339.96161236	      3.19196054	    -38.59334592	   -368.71047974	   -335.23358367	   -702.50222798	      0.00000000	     -0.00000000	     -0.00000000	  -6207.05785797	      0.00000000	     -0.00000000	      0.00000000	      0.00000000	      0.00000000	      0.00000000	      0.00000000	      0.00000000	      0.00000000
      2.43000000	      0.00000000	     -0.00000000	      0.00000000	      0.00000000	      0.00000000	      0.00000000	      0.00000000	      0.00000000	      0.00000000	      0.01369469	     42.24020767	   -401.58972168	   -326.46226985	  -1085.85011443	      0.00000000	      0.00000000	      0.00000000	   5632.18514732	      3.54532911	    -37.98141129	   -370.45599365	   -335.18463205	   -703.71668338	      0.00000000	      0.00000000	      0.00000000	  -6336.11672997	      0.00000000	     -0.00000000	      0.00000000	      0.00000000	      0.00000000	      0.00000000	      0.00000000	      0.00000000	      0.00000000
